<svg xmlns="http://www.w3.org/2000/svg" viewBox="0 0 220 70" fill="none">
  <rect width="220" height="70" fill="white"/>
  <!-- Golden torch -->
  <g transform="translate(15, 8)">
    <!-- Torch handle -->
    <rect x="14" y="32" width="8" height="22" fill="#c9a227"/>
    <!-- Handle rings -->
    <rect x="12" y="30" width="12" height="4" fill="#c9a227"/>
    <rect x="10" y="52" width="16" height="4" fill="#c9a227"/>
    <rect x="8" y="54" width="20" height="3" fill="#c9a227"/>
    <!-- Flame -->
    <path d="M18 8 Q8 20 10 28 Q12 34 18 34 Q24 34 26 28 Q28 20 18 8" fill="#c9a227"/>
    <path d="M18 14 Q12 22 14 26 Q15 30 18 30 Q21 30 22 26 Q24 22 18 14" fill="white"/>
    <!-- Inner flame detail -->
    <path d="M18 18 Q15 23 16 25 Q17 27 18 27 Q19 27 20 25 Q21 23 18 18" fill="#c9a227" opacity="0.5"/>
  </g>
  <!-- LEGACY text -->
  <text x="55" y="38" font-family="Georgia, Times New Roman, serif" font-size="28" font-weight="400" fill="#c9a227" letter-spacing="3">LEGACY</text>
  <!-- CRM text -->
  <text x="55" y="58" font-family="Georgia, Times New Roman, serif" font-size="16" font-weight="400" fill="#c9a227" letter-spacing="8">C R M</text>
</svg>