<svg xmlns="http://www.w3.org/2000/svg" viewBox="0 0 200 60" fill="none">
  <rect width="200" height="60" fill="white"/>
  <!-- Golden torch -->
  <g transform="translate(10, 8)">
    <!-- Torch handle -->
    <rect x="12" y="26" width="6" height="18" fill="#c9a227"/>
    <rect x="10" y="42" width="10" height="4" fill="#c9a227"/>
    <rect x="8" y="44" width="14" height="2" fill="#c9a227"/>
    <!-- Torch top decorations -->
    <rect x="8" y="24" width="14" height="4" fill="#c9a227"/>
    <rect x="10" y="22" width="10" height="4" fill="#c9a227"/>
    <!-- Flame -->
    <path d="M15 6 C15 6 8 14 8 18 C8 22 11 24 15 24 C19 24 22 22 22 18 C22 14 15 6 15 6" fill="#c9a227"/>
    <path d="M15 10 C15 10 11 14 11 16 C11 18 12.5 19 15 19 C17.5 19 19 18 19 16 C19 14 15 10 15 10" fill="white"/>
  </g>
  <!-- Text -->
  <text x="45" y="32" font-family="Georgia, serif" font-size="22" font-weight="400" fill="#c9a227" letter-spacing="2">LEGACY</text>
  <text x="45" y="50" font-family="Georgia, serif" font-size="14" font-weight="400" fill="#c9a227" letter-spacing="6">C R M</text>
</svg>