<svg xmlns="http://www.w3.org/2000/svg" viewBox="0 0 320 100" fill="none">
  <rect width="320" height="100" fill="#1a1a1a"/>
  <!-- Shield outline -->
  <g transform="translate(15, 10)">
    <path d="M0 0 L50 0 L50 55 L25 80 L0 55 Z" fill="none" stroke="white" stroke-width="3"/>
    <!-- Torch base -->
    <rect x="20" y="45" width="10" height="20" fill="white"/>
    <rect x="17" y="62" width="16" height="5" fill="white"/>
    <!-- Torch cup -->
    <path d="M15 45 L35 45 L32 40 L18 40 Z" fill="white"/>
    <!-- Flame -->
    <path d="M25 12 Q15 28 18 35 Q20 40 25 40 Q30 40 32 35 Q35 28 25 12" fill="white"/>
    <path d="M25 18 Q20 28 22 32 Q23 35 25 35 Q27 35 28 32 Q30 28 25 18" fill="#1a1a1a"/>
  </g>
  <!-- LOUD text -->
  <text x="85" y="48" font-family="Arial Black, Helvetica, sans-serif" font-size="36" font-weight="900" fill="white" letter-spacing="2">LOUD</text>
  <!-- LEGACY text -->
  <text x="85" y="82" font-family="Arial Black, Helvetica, sans-serif" font-size="36" font-weight="900" fill="white" letter-spacing="2">LEGACY</text>
</svg>