<svg xmlns="http://www.w3.org/2000/svg" viewBox="0 0 280 80" fill="none">
  <rect width="280" height="80" fill="#111111"/>
  <!-- Shield with torch -->
  <g transform="translate(10, 8)">
    <!-- Shield outline -->
    <path d="M16 4 L32 4 L32 40 L24 52 L16 40 Z" fill="none" stroke="white" stroke-width="2"/>
    <!-- Torch -->
    <rect x="22" y="28" width="4" height="16" fill="white"/>
    <rect x="20" y="42" width="8" height="3" fill="white"/>
    <!-- Flame -->
    <path d="M24 12 C24 12 20 20 20 24 C20 26.5 21.8 28 24 28 C26.2 28 28 26.5 28 24 C28 20 24 12 24 12" fill="white"/>
    <path d="M24 16 C24 16 22 20 22 22 C22 23.5 22.9 24 24 24 C25.1 24 26 23.5 26 22 C26 20 24 16 24 16" fill="#111111"/>
  </g>
  <!-- Text -->
  <text x="70" y="38" font-family="Arial Black, sans-serif" font-size="24" font-weight="900" fill="white">LOUD</text>
  <text x="70" y="62" font-family="Arial Black, sans-serif" font-size="24" font-weight="900" fill="white">LEGACY</text>
</svg>