<svg xmlns="http://www.w3.org/2000/svg" viewBox="0 0 240 56" fill="none">
  <!-- Hexagon Icon -->
  <g transform="translate(0, 0)">
    <!-- Orange top chevron -->
    <path d="M28 2L46 13V13L28 7L10 13V13L28 2Z" fill="#F97316"/>

    <!-- Green right side -->
    <path d="M46 13L46 43L28 54L28 24L46 13Z" fill="#22C55E"/>

    <!-- Light gray left side -->
    <path d="M10 13L10 43L28 54L28 24L10 13Z" fill="#D1D5DB"/>

    <!-- Dark bottom section -->
    <path d="M10 43L19 47.5L28 54L10 43Z" fill="#374151"/>

    <!-- Graduate figures -->
    <g fill="#374151">
      <!-- Left figure -->
      <circle cx="22" cy="25" r="3.5"/>
      <path d="M17 31C17 31 18.5 28 22 28C25.5 28 27 31 27 31L27 40L17 40L17 31Z"/>
      <rect x="18" y="20" width="8" height="2.5" rx="0.5"/>
      <path d="M22 18L27 21L22 20L17 21L22 18Z"/>

      <!-- Right figure -->
      <circle cx="34" cy="25" r="3.5"/>
      <path d="M29 31C29 31 30.5 28 34 28C37.5 28 39 31 39 31L39 40L29 40L29 31Z"/>
      <rect x="30" y="20" width="8" height="2.5" rx="0.5"/>
      <path d="M34 18L39 21L34 20L29 21L34 18Z"/>
    </g>
  </g>

  <!-- Text: LOUD -->
  <text x="60" y="28" font-family="system-ui, -apple-system, BlinkMacSystemFont, sans-serif" font-size="24" font-weight="800" fill="#0F172A">
    LOUD
  </text>

  <!-- Text: WORKS -->
  <text x="60" y="48" font-family="system-ui, -apple-system, BlinkMacSystemFont, sans-serif" font-size="20" font-weight="700" fill="#22C55E">
    WORKS
  </text>
</svg>
