<svg xmlns="http://www.w3.org/2000/svg" viewBox="0 0 200 100" fill="none">
  <defs>
    <linearGradient id="sportGrad1" x1="0%" y1="0%" x2="100%" y2="100%">
      <stop offset="0%" style="stop-color:#00c8ff"/>
      <stop offset="30%" style="stop-color:#00e87a"/>
      <stop offset="60%" style="stop-color:#f0e020"/>
      <stop offset="100%" style="stop-color:#ff5533"/>
    </linearGradient>
    <linearGradient id="sportGrad2" x1="100%" y1="0%" x2="0%" y2="100%">
      <stop offset="0%" style="stop-color:#ff5588"/>
      <stop offset="50%" style="stop-color:#ff7744"/>
      <stop offset="100%" style="stop-color:#ffaa22"/>
    </linearGradient>
  </defs>
  <rect width="200" height="100" fill="white"/>
  <!-- Stylized S swirl with play button -->
  <g transform="translate(50, 8)">
    <!-- Outer colorful swirl -->
    <path d="M50 5 C75 5 90 18 90 38 C90 52 78 62 58 62 C38 62 28 52 28 38 C28 28 38 20 52 20"
          stroke="url(#sportGrad1)" stroke-width="12" fill="none" stroke-linecap="round"/>
    <!-- Inner swirl continuation -->
    <path d="M52 20 C62 20 70 28 70 38 C70 48 62 55 52 55"
          stroke="url(#sportGrad2)" stroke-width="10" fill="none" stroke-linecap="round"/>
    <!-- Play button triangle -->
    <path d="M48 30 L62 40 L48 50 Z" fill="#1a2f4a"/>
    <!-- Sparkle/star -->
    <path d="M82 8 L84 14 L90 16 L84 18 L82 24 L80 18 L74 16 L80 14 Z" fill="#00d4ff"/>
    <!-- Small accent dots -->
    <circle cx="20" cy="45" r="3" fill="#00e87a"/>
    <circle cx="85" cy="55" r="2.5" fill="#ff7744"/>
    <circle cx="35" cy="15" r="2" fill="#00c8ff"/>
  </g>
  <!-- SPORTIFY text -->
  <text x="100" y="92" font-family="Arial, Helvetica, sans-serif" font-size="18" font-weight="700" fill="#1a2f4a" text-anchor="middle" letter-spacing="3">SPORTIFY</text>
</svg>